<mxfile host="app.diagrams.net" modified="2023-06-15T02:34:19.553Z" agent="Mozilla/5.0 (Windows NT 10.0; Win64; x64) AppleWebKit/537.36 (KHTML, like Gecko) Chrome/114.0.0.0 Safari/537.36" version="21.4.0" etag="0H2H0R80gA17TJ3st5xG" type="github">
  <diagram name="PÃ¡gina-1" id="y-UUB98HfL8MUXSE8ZWB">
    <mxGraphModel>
      <root>
        <mxCell id="0" />
        <mxCell id="1" parent="0" />
      </root>
    </mxGraphModel>
  </diagram>
</mxfile>
